<svg width="124" height="49" viewBox="0 0 124 49" fill="none" xmlns="http://www.w3.org/2000/svg">
<path d="M0 18.9701C0 28.4552 7.16997 35.9876 17.4521 35.9876C26.9325 35.9876 34.9987 29.1242 34.9987 18.59C34.9987 9.10496 27.8288 1.57252 17.5466 1.57252C8.06621 1.57252 0 8.43599 0 18.9701ZM28.0652 18.8268C28.0652 27.2649 23.8676 33.9373 17.5466 33.9373C11.3675 33.9373 6.93355 27.5516 6.93355 18.7334C6.93355 10.2952 11.1332 3.62287 17.4521 3.62287C23.6312 3.62287 28.0652 10.0107 28.0652 18.8268ZM37.307 43.0422C37.307 46.1873 40.2795 49 46.3641 49C53.203 49 57.5403 44.5192 57.5403 39.3716C57.5403 35.273 54.2863 33.0316 49.8029 33.605L41.9258 34.6041C39.3316 34.9386 38.53 34.0806 38.53 32.747C38.53 31.1723 40.2279 29.9234 46.1233 29.9234H46.2179C50.5165 29.9234 55.5565 27.3019 55.5565 21.6286C55.5621 19.839 54.8864 18.1157 53.6694 16.8155C53.2396 15.9576 53.1042 15.0996 53.1042 13.8594C53.1042 9.66533 55.9348 7.28267 58.8578 7.28267C60.085 7.28267 60.4611 7.47163 60.4611 8.32957C60.4611 8.56848 60.4138 8.76396 60.4138 9.04632C60.4219 9.43253 60.5054 9.81332 60.6596 10.1668C60.8137 10.5203 61.0355 10.8395 61.3121 11.1061C61.5887 11.3728 61.9147 11.5815 62.2714 11.7204C62.6281 11.8593 63.0085 11.9256 63.3906 11.9155C65.1831 11.9155 66.3157 10.4863 66.3157 8.91383C66.3157 6.52465 64.1923 4.76751 60.2784 4.76751C54.9053 4.76751 50.7507 8.29481 50.7507 13.6726C50.7507 14.107 50.7959 14.435 50.7959 14.7586C49.4049 14.1823 47.9146 13.8907 46.4113 13.9007C42.1665 13.9007 37.0706 16.5223 37.0706 22.1955C37.0706 24.8171 38.5343 27.2476 41.0812 28.6767C37.307 29.2023 35.1384 31.2505 35.1384 34.4455C35.1384 37.6861 37.6853 40.021 42.4459 39.4411L49.3236 38.5723C52.7624 38.1379 53.8994 39.3824 53.8994 41.1939C53.8994 44.3389 50.9742 46.8649 46.306 46.8649C42.5792 46.8649 41.2123 45.5313 41.2123 43.6243C41.2123 43.3376 41.2595 42.9575 41.2595 42.6708C41.2595 41.5262 40.5503 40.716 39.4198 40.6683C38.098 40.6683 37.2963 41.6218 37.2963 43.0053L37.307 43.0422ZM50.28 22.0218C50.28 25.3579 48.7755 28.2184 46.4113 28.2184C44.146 28.2184 42.3535 25.6924 42.3535 21.8306C42.3535 18.5422 43.858 15.634 46.2695 15.634C48.4854 15.634 50.2779 18.16 50.2779 22.0218H50.28ZM69.7116 35.462V33.7939L67.2593 33.7461C66.6446 33.7461 66.2212 33.366 66.2212 32.8404V13.8225L57.9185 15.9684V16.9697L60.2827 17.7321C60.4469 17.7882 60.5875 17.8988 60.6815 18.0459C60.7756 18.193 60.8176 18.3679 60.8007 18.5422V32.9838C60.8183 33.154 60.7688 33.3245 60.663 33.4582C60.5573 33.5919 60.4037 33.6782 60.2355 33.6984L58.3011 33.9373V35.4577L69.7116 35.462ZM80.9372 35.462V33.9416L78.6246 33.7027C78.4564 33.6825 78.3028 33.5962 78.197 33.4625C78.0912 33.3288 78.0418 33.1584 78.0593 32.9881V0L69.7567 2.14592V3.14504L72.1209 3.90957C72.2853 3.96531 72.4261 4.07583 72.5202 4.22303C72.6143 4.37022 72.6562 4.54535 72.6389 4.71972V32.8404C72.6389 33.366 72.209 33.7461 71.6008 33.7461L69.2903 33.7939V35.462H80.9372ZM102.161 14.6327H94.8538V16.064L96.7408 16.4441C97.4006 16.5875 97.637 17.1109 97.2115 18.16L93.014 29.3131C92.827 29.7475 92.5841 29.7475 92.4487 29.3131L88.2039 18.16C87.8256 17.0631 88.0148 16.5875 88.6746 16.4441L90.5617 16.064V14.6327H79.9013V16.1118L80.9394 16.3485C81.2592 16.4017 81.5592 16.5403 81.8082 16.7499C82.0572 16.9596 82.2462 17.2327 82.3557 17.541L89.5708 35.462H92.8356L100.04 17.5496C100.418 16.5961 100.842 16.2139 101.596 16.2139H102.163L102.161 14.6327ZM120.886 18.0644C121.356 16.9784 121.96 16.4919 122.96 16.3008L123.998 16.1118V14.6327H115.934V16.064L117.821 16.4441C118.481 16.5875 118.681 17.1109 118.251 18.16L113.898 28.7419C113.709 29.1763 113.469 29.1763 113.331 28.7419L109.275 18.16C108.845 17.0631 109.086 16.5875 109.746 16.4441L111.633 16.064V14.6327H101.312V16.2052H101.88C102.492 16.2052 102.954 16.4441 103.341 17.3498L110.889 35.9398L108.863 40.8007C107.541 44.0435 106.55 44.6147 105.325 44.6147C104.805 44.6147 104.24 44.5192 103.672 44.5192C102.211 44.5192 101.308 45.5683 101.308 46.7129C101.308 47.9987 102.346 48.9044 103.997 48.9044C106.361 48.9044 108.667 46.9974 110.601 42.4232L120.886 18.0644Z" fill="white"/>
</svg>
