<svg width="41" height="32" viewBox="0 0 41 32" fill="none" xmlns="http://www.w3.org/2000/svg">
<path d="M23.1993 18.8701C23.1993 26.4999 25.6797 31.8857 32.2456 31.8857C37.2064 31.8857 40.1246 27.6968 40.1246 23.807C40.1246 20.0669 37.0605 15.878 32.0996 15.878C31.0783 15.878 30.3488 16.0276 29.4733 16.3268C29.4733 9.74419 34.8719 4.80723 41 5.40565L40.7082 0.01987C31.6619 -0.428948 23.1993 6.75209 23.1993 18.8701ZM0 18.8701C0 26.4999 2.48043 31.8857 9.04626 31.8857C14.0071 31.8857 16.9253 27.6968 16.9253 23.807C16.9253 20.0669 13.8612 15.878 8.90035 15.878C7.879 15.878 7.14947 16.0276 6.27402 16.3268C6.27402 9.74419 11.6726 4.80723 17.8007 5.40565L17.5089 0.01987C8.46263 -0.428948 0 6.75209 0 18.8701Z" fill="#EB3F43"/>
</svg>
