<svg width="16" height="24" viewBox="0 0 16 24" fill="none" xmlns="http://www.w3.org/2000/svg">
<path fill-rule="evenodd" clip-rule="evenodd" d="M7.99668 5.33333C4.29974 5.33333 1.29932 8.32 1.29932 12C1.29932 15.68 4.29974 18.6667 7.99668 18.6667C11.6936 18.6667 14.694 15.68 14.694 12C14.694 8.32 11.6936 5.33333 7.99668 5.33333ZM2.63879 12C2.63879 9.05333 5.03645 6.66667 7.99668 6.66667C9.23569 6.66667 10.3742 7.08667 11.2784 7.79333L3.77064 15.2667C3.06072 14.3667 2.63879 13.2333 2.63879 12ZM4.71497 16.2067C5.61912 16.9133 6.75767 17.3333 7.99668 17.3333C10.9569 17.3333 13.3546 14.9467 13.3546 12C13.3546 10.7667 12.9326 9.63333 12.2227 8.73333L4.71497 16.2067Z" fill="#545659"/>
</svg>
